<?xml version="1.0" encoding="iso-8859-1"?>
<!-- Uploaded to: SVG Repo, www.svgrepo.com, Generator: SVG Repo Mixer Tools -->
<svg height="800px" width="800px" version="1.1" id="Layer_1" xmlns="http://www.w3.org/2000/svg" xmlns:xlink="http://www.w3.org/1999/xlink" 
	 viewBox="0 0 512 512" xml:space="preserve">
<circle style="fill:#ADA323;" cx="256" cy="256" r="256"/>
<circle style="fill:#F4BD5B;" cx="256" cy="256" r="216.055"/>
<circle style="fill:#FFD283;" cx="256" cy="256" r="201.456"/>
<g style="opacity:0.4;">
	<circle style="fill:#FFFFFF;" cx="373.414" cy="99.883" r="40.519"/>
	<circle style="fill:#FFFFFF;" cx="438.156" cy="166.604" r="20.258"/>
</g>
<g style="opacity:0.2;">
	<path d="M44.112,298.379C24.08,179.327,94.26,81.703,160.517,18.481C66.444,56.333,0,148.38,0,255.996
		c0,141.388,114.612,256,255.996,256c43.966,0,85.336-11.096,121.486-30.622C230.895,507.588,69.811,451.112,44.112,298.379z"/>
</g>
<path style="fill:#F4BD5B;" d="M367.13,297.932c-6.138-3.075-13.13-3.807-19.969-3.209c-26.498,2.331-39.894-22.759-43.582-31.053
	c0.4-2.505,0.665-5.053,0.665-7.673c0-2.75-0.285-5.433-0.728-8.061c4.31-9.209,17.642-32.114,42.949-29.973
	c6.906,0.582,13.958-0.103,20.147-3.217c12.169-6.126,22.323-21.021-15.05-56.519c-35.62-37.5-50.496-27.147-56.582-14.923
	c-3.031,6.086-3.787,13.016-3.174,19.791c2.853,31.548-33.19,44.603-33.669,44.773c-0.712-0.032-1.417-0.107-2.141-0.107
	c-1.096,0-2.173,0.091-3.253,0.162l0.04-0.04c0,0-36.499-13.004-33.72-44.678c0.602-6.886-0.135-13.906-3.249-20.072
	c-6.138-12.149-21.041-22.228-56.499,15.093c-37.365,35.497-27.219,50.393-15.054,56.519c6.114,3.079,13.095,3.854,19.913,3.237
	c27.412-2.481,40.852,24.393,44.025,31.805c-0.261,2.042-0.443,4.104-0.443,6.209c0,2.62,0.265,5.172,0.665,7.673
	c-3.688,8.295-17.08,33.384-43.582,31.053c-6.838-0.598-13.827,0.127-19.961,3.205c-12.193,6.106-22.43,20.994,14.994,56.546
	c35.458,37.326,50.361,27.242,56.499,15.093c3.118-6.169,3.854-13.186,3.249-20.072c-2.774-31.674,33.724-44.678,33.724-44.678
	l-0.744-0.744c1.128,0.079,2.252,0.17,3.399,0.17c1.152,0,2.275-0.091,3.399-0.17l-0.744,0.744c0,0,36.498,13.004,33.724,44.678
	c-0.602,6.886,0.131,13.906,3.249,20.072c6.138,12.145,21.041,22.228,56.495-15.093C389.544,318.93,379.318,304.042,367.13,297.932z
	"/>
<circle style="fill:#FFDDA6;" cx="193.537" cy="166.366" r="11.912"/>
<circle style="fill:#AF7C3F;" cx="197.906" cy="164.126" r="4.353"/>
<circle style="fill:#FFDDA6;" cx="169.687" cy="191.891" r="11.912"/>
<circle style="fill:#AF7C3F;" cx="174.04" cy="189.643" r="4.353"/>
<circle style="fill:#FFDDA6;" cx="345.634" cy="190.19" r="11.912"/>
<circle style="fill:#AF7C3F;" cx="347.889" cy="194.582" r="4.353"/>
<circle style="fill:#FFDDA6;" cx="320.129" cy="166.366" r="11.912"/>
<circle style="fill:#AF7C3F;" cx="322.364" cy="170.719" r="4.353"/>
<circle style="fill:#FFDDA6;" cx="193.949" cy="351.728" r="11.912"/>
<circle style="fill:#AF7C3F;" cx="198.342" cy="353.944" r="4.353"/>
<circle style="fill:#FFDDA6;" cx="170.118" cy="326.203" r="11.912"/>
<circle style="fill:#AF7C3F;" cx="174.479" cy="328.439" r="4.353"/>
<circle style="fill:#FFDDA6;" cx="346.069" cy="327.865" r="11.912"/>
<circle style="fill:#AF7C3F;" cx="348.325" cy="323.512" r="4.357"/>
<circle style="fill:#FFDDA6;" cx="320.544" cy="351.728" r="11.912"/>
<circle style="fill:#AF7C3F;" cx="322.8" cy="347.375" r="4.353"/>
</svg>