<?xml version="1.0" encoding="UTF-8" standalone="no"?>
<!-- Created with Inkscape (http://www.inkscape.org/) -->

<svg
   version="1.1"
   id="svg1199"
   width="800"
   height="800"
   viewBox="0 0 800 800"
   sodipodi:docname="debugging-clipart-publicdomainvectors.org.svg"
   inkscape:version="1.2 (dc2aedaf03, 2022-05-15)"
   xmlns:inkscape="http://www.inkscape.org/namespaces/inkscape"
   xmlns:sodipodi="http://sodipodi.sourceforge.net/DTD/sodipodi-0.dtd"
   xmlns="http://www.w3.org/2000/svg"
   xmlns:svg="http://www.w3.org/2000/svg">
  <defs
     id="defs1203">
    <clipPath
       clipPathUnits="userSpaceOnUse"
       id="clipPath1215">
      <path
         d="M 0,600 H 600 V 0 H 0 Z"
         id="path1213" />
    </clipPath>
  </defs>
  <sodipodi:namedview
     id="namedview1201"
     pagecolor="#ffffff"
     bordercolor="#000000"
     borderopacity="0.25"
     inkscape:showpageshadow="2"
     inkscape:pageopacity="0.0"
     inkscape:pagecheckerboard="0"
     inkscape:deskcolor="#d1d1d1"
     showgrid="false"
     inkscape:zoom="1.04625"
     inkscape:cx="399.5221"
     inkscape:cy="400.4779"
     inkscape:window-width="1920"
     inkscape:window-height="1017"
     inkscape:window-x="-8"
     inkscape:window-y="-8"
     inkscape:window-maximized="1"
     inkscape:current-layer="g1207">
    <inkscape:page
       x="0"
       y="0"
       id="page1205"
       width="800"
       height="800" />
  </sodipodi:namedview>
  <g
     id="g1207"
     inkscape:groupmode="layer"
     inkscape:label="Page 1"
     transform="matrix(1.3333333,0,0,-1.3333333,0,800)">
    <g
       id="g1209">
      <g
         id="g1211"
         clip-path="url(#clipPath1215)">
        <g
           id="g1217"
           transform="translate(300.8369,83.7676)">
          <path
             d="m 0,0 c 115.238,0 209.228,4.426 209.228,9.852 0,5.425 -93.99,9.849 -209.228,9.849 -115.239,0 -209.228,-4.424 -209.228,-9.849 C -209.228,4.426 -115.239,0 0,0"
             style="fill:#e8e8e7;fill-opacity:1;fill-rule:evenodd;stroke:none"
             id="path1219" />
        </g>
        <path
           d="M 248.628,98.158 H 353.044 V 190.36 H 248.628 Z"
           style="fill:#cdcccb;fill-opacity:1;fill-rule:evenodd;stroke:none"
           id="path1221" />
        <path
           d="m 248.628,146.623 h 104.416 v 25.612 H 248.628 Z"
           style="fill:#b4b3b2;fill-opacity:1;fill-rule:evenodd;stroke:none"
           id="path1223" />
        <g
           id="g1225"
           transform="translate(42.7017,511.2256)">
          <path
             d="m 0,0 h 516.269 c 6.681,0 12.145,-5.466 12.145,-12.146 v -319.546 c 0,-6.68 -5.464,-12.146 -12.145,-12.146 H 0 c -6.681,0 -12.146,5.466 -12.146,12.146 V -12.146 C -12.146,-5.466 -6.681,0 0,0"
             style="fill:#2f2d2d;fill-opacity:1;fill-rule:evenodd;stroke:none"
             id="path1227" />
        </g>
        <path
           d="M 47.814,184.645 H 553.857 V 493.966 H 47.814 Z"
           style="fill:#bb874f;fill-opacity:1;fill-rule:evenodd;stroke:none"
           id="path1229" />
        <path
           d="m 182.824,211.602 h 335.71 v 219.867 h -335.71 z"
           style="fill:#e4b17a;fill-opacity:1;fill-rule:evenodd;stroke:none"
           id="path1231" />
        <path
           d="m 182.824,405.261 h 335.71 v 26.207 h -335.71 z"
           style="fill:#f5e2cb;fill-opacity:1;fill-rule:evenodd;stroke:none"
           id="path1233" />
        <path
           d="m 479.234,412.651 h 32.508 v 11.426 h -32.508 z"
           style="fill:#d4a36e;fill-opacity:1;fill-rule:evenodd;stroke:none"
           id="path1235" />
        <path
           d="m 456.677,412.651 h 16.254 v 11.426 h -16.254 z"
           style="fill:#d4a36e;fill-opacity:1;fill-rule:evenodd;stroke:none"
           id="path1237" />
        <path
           d="m 434.66,412.651 h 16.254 v 11.426 H 434.66 Z"
           style="fill:#d4a36e;fill-opacity:1;fill-rule:evenodd;stroke:none"
           id="path1239" />
        <path
           d="m 471.549,250.585 h 21.277 v -7.445 h -21.277 z m -109.145,0 h 63.044 v -7.445 h -63.044 z m -69.348,0 h 55.558 v -7.445 h -55.558 z m -89.838,0 h 49.647 v -7.445 h -49.647 z m 193.467,135.151 h 65.408 v -7.446 h -65.408 z m -76.442,0 h 50.829 v -7.446 h -50.829 z m -59.103,0 h 32.311 V 378.29 H 261.14 Z m -57.922,0 h 33.099 V 378.29 H 203.218 Z M 429.389,269.893 h 63.438 v -7.446 h -63.438 z m -100.87,0 h 49.646 v -7.446 h -49.646 z m -57.53,0 h 47.679 v -7.446 h -47.679 z m -67.771,0 h 26.006 v -7.446 H 203.218 Z M 467.61,289.2 h 25.216 v -7.446 H 467.61 Z m -102.053,0 h 43.737 v -7.446 h -43.737 z m -78.806,0 h 46.101 v -7.446 h -46.101 z m -57.527,0 h 41.766 v -7.446 h -41.766 z m 214.745,19.307 h 48.857 v -7.445 h -48.857 z m -43.739,0 h 28.765 v -7.445 H 400.23 Z m -74.077,0 h 45.708 v -7.445 h -45.708 z m -62.255,0 h 27.581 v -7.445 h -27.581 z m -34.674,0 h 12.215 v -7.445 h -12.215 z m 240.356,19.307 h 23.246 v -7.446 H 469.58 Z m -49.253,0 h 23.642 v -7.446 h -23.642 z m -62.65,0 h 26.793 v -7.446 h -26.793 z m -52.407,0 h 26.794 v -7.446 H 305.27 Z m -76.046,0 h 39.402 v -7.446 h -39.402 z m 86.686,19.307 h 68.954 v -7.446 H 315.91 Z m -59.499,0 h 37.827 v -7.446 h -37.827 z m -53.193,0 h 29.158 v -7.446 h -29.158 z m 232.475,19.308 h 36.251 v -7.446 h -36.251 z m -72.5,0 h 40.978 v -7.446 h -40.978 z m -68.562,0 h 39.798 v -7.446 h -39.798 z m -91.413,0 h 64.62 v -7.446 h -64.62 z"
           style="fill:#f5e2cb;fill-opacity:1;fill-rule:evenodd;stroke:none"
           id="path1241" />
        <path
           d="M 95.351,242.77 H 431.062 V 462.637 H 95.351 Z"
           style="fill:#d4a36e;fill-opacity:1;fill-rule:evenodd;stroke:none"
           id="path1243" />
        <path
           d="m 95.351,436.43 h 335.711 v 26.207 H 95.351 Z"
           style="fill:#f5e2cb;fill-opacity:1;fill-rule:evenodd;stroke:none"
           id="path1245" />
        <path
           d="m 391.762,443.819 h 32.507 v 11.427 h -32.507 z"
           style="fill:#bb874f;fill-opacity:1;fill-rule:evenodd;stroke:none"
           id="path1247" />
        <path
           d="m 369.202,443.819 h 16.255 v 11.427 h -16.255 z"
           style="fill:#bb874f;fill-opacity:1;fill-rule:evenodd;stroke:none"
           id="path1249" />
        <path
           d="m 347.187,443.819 h 16.253 v 11.427 h -16.253 z"
           style="fill:#bb874f;fill-opacity:1;fill-rule:evenodd;stroke:none"
           id="path1251" />
        <path
           d="m 384.076,281.754 h 21.277 v -7.446 h -21.277 z m -109.146,0 h 63.046 v -7.446 H 274.93 Z m -69.348,0 h 55.558 v -7.446 h -55.558 z m -89.837,0 h 49.647 v -7.446 h -49.647 z m 193.466,135.15 h 65.408 v -7.446 h -65.408 z m -76.442,0 h 50.83 v -7.446 h -50.83 z m -59.103,0 h 32.31 v -7.446 h -32.31 z m -57.921,0 h 33.098 v -7.446 H 115.745 Z M 341.916,301.061 h 63.438 v -7.446 h -63.438 z m -100.871,0 h 49.646 v -7.446 h -49.646 z m -57.528,0 h 47.678 v -7.446 h -47.678 z m -67.772,0 h 26.005 v -7.446 h -26.005 z m 264.391,19.307 h 25.218 v -7.446 h -25.218 z m -102.053,0 h 43.737 v -7.446 h -43.737 z m -78.805,0 h 46.101 v -7.446 h -46.101 z m -57.528,0 h 41.767 v -7.446 H 141.75 Z m 214.744,19.308 h 48.859 v -7.447 h -48.859 z m -43.736,0 h 28.763 v -7.447 h -28.763 z m -74.078,0 h 45.708 v -7.447 H 238.68 Z m -62.256,0 h 27.582 v -7.447 h -27.582 z m -34.674,0 h 12.214 v -7.447 H 141.75 Z m 240.355,19.306 h 23.248 v -7.446 h -23.248 z m -49.253,0 h 23.642 v -7.446 h -23.642 z m -62.649,0 h 26.793 v -7.446 h -26.793 z m -52.406,0 h 26.794 v -7.446 h -26.794 z m -76.047,0 h 39.402 v -7.446 H 141.75 Z m 86.685,19.308 h 68.955 v -7.446 h -68.955 z m -59.497,0 h 37.826 v -7.446 h -37.826 z m -53.193,0 h 29.157 v -7.446 h -29.157 z m 232.475,19.308 h 36.25 v -7.446 h -36.25 z m -72.501,0 h 40.979 v -7.446 h -40.979 z m -68.561,0 h 39.797 v -7.446 h -39.797 z m -91.413,0 h 64.62 v -7.446 h -64.62 z"
           style="fill:#f5e2cb;fill-opacity:1;fill-rule:evenodd;stroke:none"
           id="path1253" />
        <path
           d="m 190.213,95.006 h 221.246 v 24.036 H 190.213 Z"
           style="fill:#2f2d2d;fill-opacity:1;fill-rule:evenodd;stroke:none"
           id="path1255" />
        <g
           id="g1257"
           transform="translate(378.8564,273.1885)">
          <path
             d="M 0,0 C -1.228,-0.08 -2.161,-1.142 -2.081,-2.371 -2.002,-3.6 -0.939,-4.532 0.29,-4.452 l 16.845,1.051 10.983,-14.202 c 0.754,-0.977 2.16,-1.158 3.139,-0.402 0.977,0.755 1.158,2.159 0.402,3.138 L 19.956,0.268 19.95,0.263 C 19.512,0.83 18.809,1.175 18.041,1.125 Z m -40.954,-17.146 c 0.92,0.82 2.329,0.739 3.15,-0.181 0.82,-0.919 0.739,-2.329 -0.181,-3.15 l -12.569,-11.264 2.411,-17.789 c 0.166,-1.225 -0.692,-2.352 -1.916,-2.519 -1.224,-0.168 -2.352,0.69 -2.518,1.913 l -2.57,18.959 0.006,0.001 c -0.095,0.711 0.151,1.453 0.727,1.967 z M -49.74,3.839 c 1.228,0.08 2.162,1.141 2.082,2.371 -0.08,1.229 -1.142,2.161 -2.371,2.081 l -16.846,-1.05 -10.983,14.201 c -0.754,0.978 -2.16,1.158 -3.137,0.403 -0.98,-0.755 -1.16,-2.161 -0.404,-3.139 l 11.704,-15.134 0.005,0.004 c 0.438,-0.566 1.141,-0.912 1.911,-0.862 z m 40.954,17.146 c -0.919,-0.819 -2.329,-0.739 -3.149,0.181 -0.821,0.919 -0.74,2.33 0.18,3.15 L 0.815,35.581 -1.597,53.37 c -0.167,1.225 0.692,2.353 1.915,2.519 1.225,0.167 2.353,-0.691 2.521,-1.915 L 5.408,35.016 5.401,35.015 C 5.498,34.305 5.25,33.56 4.676,33.049 Z"
             style="fill:#ffffff;fill-opacity:1;fill-rule:evenodd;stroke:none"
             id="path1259" />
        </g>
        <g
           id="g1261"
           transform="translate(320.96,263.7236)">
          <path
             d="m 0,0 64.313,26.926 c 1.144,0.478 2.47,-0.065 2.949,-1.208 0.477,-1.144 -0.066,-2.47 -1.209,-2.948 L 1.74,-4.157 c -1.143,-0.479 -2.469,0.065 -2.948,1.208 v 10e-4 C -1.687,-1.806 -1.143,-0.48 0,0"
             style="fill:#ffffff;fill-opacity:1;fill-rule:evenodd;stroke:none"
             id="path1263" />
        </g>
        <g
           id="g1265"
           transform="translate(340.207,308.0205)">
          <path
             d="M 0,0 C 14.618,6.12 32.579,-3.511 40.114,-21.512 47.651,-39.514 41.91,-59.068 27.292,-65.187 12.674,-71.308 -5.285,-61.678 -12.822,-43.676 -20.359,-25.674 -14.618,-6.12 0,0"
             style="fill:#fab40a;fill-opacity:1;fill-rule:evenodd;stroke:none"
             id="path1267" />
        </g>
        <g
           id="g1269"
           transform="translate(372.9619,246.042)">
          <path
             d="M 0,0 C -1.649,-1.294 -3.474,-2.377 -5.463,-3.209 -7.452,-4.042 -9.503,-4.58 -11.581,-4.85 L -16.504,13.856 -23.097,38.91 -9.874,16.633 Z"
             style="fill:#a67b1e;fill-opacity:1;fill-rule:evenodd;stroke:none"
             id="path1271" />
        </g>
        <g
           id="g1273"
           transform="translate(340.207,308.0205)">
          <path
             d="M 0,0 C 9.687,4.055 20.839,1.193 29.456,-6.435 L -16.083,-25.502 C -15.473,-14.01 -9.687,-4.056 0,0"
             style="fill:#ffffff;fill-opacity:1;fill-rule:evenodd;stroke:none"
             id="path1275" />
        </g>
        <g
           id="g1277"
           transform="translate(346.7412,321.3091)">
          <path
             d="M 0,0 C -0.478,1.141 0.06,2.454 1.2,2.932 2.342,3.41 3.655,2.872 4.134,1.73 c 1.667,-3.983 1.562,-8.265 0.045,-11.97 -1.518,-3.703 -4.449,-6.828 -8.433,-8.496 -3.983,-1.668 -8.267,-1.562 -11.97,-0.045 -3.702,1.518 -6.828,4.449 -8.497,8.432 -0.477,1.142 0.062,2.454 1.203,2.932 1.142,0.479 2.454,-0.06 2.933,-1.201 1.189,-2.843 3.419,-4.934 6.061,-6.016 2.641,-1.083 5.698,-1.158 8.541,0.032 2.841,1.19 4.932,3.42 6.014,6.062 C 1.114,-5.898 1.189,-2.843 0,0"
             style="fill:#ffffff;fill-opacity:1;fill-rule:evenodd;stroke:none"
             id="path1279" />
        </g>
        <g
           id="g1281"
           transform="translate(228.8838,322.7612)">
          <path
             d="m 0,0 c -1.015,0.701 -2.403,0.445 -3.104,-0.569 -0.699,-1.014 -0.444,-2.403 0.57,-3.103 l 13.866,-9.623 -0.19,-17.951 c -0.015,-1.235 0.975,-2.249 2.21,-2.262 1.237,-0.015 2.25,0.976 2.264,2.212 l 0.203,19.129 -0.005,0.002 c 0.007,0.716 -0.331,1.423 -0.964,1.86 z m -42.762,11.948 c 1.23,0.072 2.286,-0.865 2.36,-2.095 0.073,-1.23 -0.866,-2.287 -2.096,-2.359 L -59.344,6.452 -68.485,-8.999 c -0.628,-1.064 -2.001,-1.416 -3.064,-0.789 -1.064,0.629 -1.417,2.001 -0.789,3.066 l 9.742,16.465 0.005,-0.003 c 0.365,0.617 1.02,1.047 1.79,1.092 z m 6.122,21.91 c 1.014,-0.699 2.404,-0.444 3.104,0.569 0.7,1.015 0.445,2.404 -0.569,3.104 l -13.867,9.623 0.191,17.951 c 0.014,1.236 -0.976,2.249 -2.212,2.263 -1.236,0.014 -2.249,-0.976 -2.263,-2.212 l -0.203,-19.131 h 0.006 c -0.007,-0.717 0.33,-1.424 0.964,-1.861 z M 6.122,21.912 c -1.23,-0.073 -2.287,0.865 -2.359,2.095 -0.074,1.23 0.865,2.286 2.095,2.358 l 16.846,1.043 9.142,15.449 c 0.628,1.065 2.001,1.418 3.063,0.789 1.065,-0.627 1.418,-2 0.789,-3.064 l -9.741,-16.466 -0.006,0.003 c -0.365,-0.616 -1.019,-1.046 -1.789,-1.092 z"
             style="fill:#3f3016;fill-opacity:1;fill-rule:evenodd;stroke:none"
             id="path1283" />
        </g>
        <g
           id="g1285"
           transform="translate(177.5952,351.2417)">
          <path
             d="m 0,0 67.15,-18.762 c 1.194,-0.333 1.897,-1.582 1.564,-2.776 v 0 c -0.335,-1.193 -1.583,-1.897 -2.776,-1.564 L -1.213,-4.34 C -2.406,-4.006 -3.11,-2.758 -2.776,-1.564 -2.442,-0.37 -1.193,0.333 0,0"
             style="fill:#3f3016;fill-opacity:1;fill-rule:evenodd;stroke:none"
             id="path1287" />
        </g>
        <g
           id="g1289"
           transform="translate(220.165,374.0552)">
          <path
             d="m 0,0 c 15.263,-4.264 23.38,-22.957 18.128,-41.753 -5.251,-18.795 -21.882,-30.575 -37.144,-26.311 -15.264,4.266 -23.38,22.959 -18.129,41.753 C -31.893,-7.515 -15.263,4.265 0,0"
             style="fill:#ed1f24;fill-opacity:1;fill-rule:evenodd;stroke:none"
             id="path1291" />
        </g>
        <g
           id="g1293"
           transform="translate(207.4233,305.1211)">
          <path
             d="m 0,0 c -2.096,0.009 -4.198,0.29 -6.274,0.87 -2.078,0.581 -4.021,1.43 -5.818,2.509 L -4.353,21.105 6.013,44.849 2.571,19.171 Z"
             style="fill:#a67b1e;fill-opacity:1;fill-rule:evenodd;stroke:none"
             id="path1295" />
        </g>
        <g
           id="g1297"
           transform="translate(220.165,374.0552)">
          <path
             d="m 0,0 c 10.114,-2.826 17.088,-11.987 19.116,-23.315 l -47.548,13.284 C -20.826,-1.394 -10.113,2.826 0,0"
             style="fill:#3f3016;fill-opacity:1;fill-rule:evenodd;stroke:none"
             id="path1299" />
        </g>
        <g
           id="g1301"
           transform="translate(233.5313,380.4282)">
          <path
             d="m 0,0 c 0.333,1.191 1.569,1.888 2.761,1.555 1.192,-0.333 1.888,-1.569 1.555,-2.762 -1.162,-4.158 -3.9,-7.453 -7.387,-9.417 -3.488,-1.964 -7.725,-2.598 -11.884,-1.436 -4.159,1.162 -7.454,3.9 -9.418,7.388 -1.965,3.487 -2.599,7.724 -1.437,11.883 0.333,1.191 1.57,1.888 2.761,1.555 1.192,-0.333 1.889,-1.569 1.555,-2.761 -0.829,-2.968 -0.376,-5.991 1.025,-8.479 1.401,-2.487 3.752,-4.44 6.719,-5.27 2.969,-0.829 5.991,-0.377 8.479,1.024 C -2.783,-5.318 -0.829,-2.968 0,0"
             style="fill:#3f3016;fill-opacity:1;fill-rule:evenodd;stroke:none"
             id="path1303" />
        </g>
        <g
           id="g1305"
           transform="translate(406.1758,429.6821)">
          <path
             d="m 0,0 c -0.017,-1.232 0.967,-2.246 2.198,-2.263 1.233,-0.018 2.246,0.966 2.264,2.198 l 0.287,16.877 15.026,9.822 c 1.036,0.676 1.327,2.062 0.651,3.097 -0.675,1.035 -2.063,1.326 -3.097,0.651 L 1.315,19.914 1.319,19.908 c -0.599,-0.393 -1,-1.066 -1.011,-1.836 z m 13.849,-42.185 c -0.745,0.982 -0.553,2.382 0.429,3.126 0.982,0.745 2.381,0.552 3.126,-0.43 l 10.233,-13.422 17.924,0.993 c 1.235,0.07 2.291,-0.874 2.359,-2.108 0.071,-1.234 -0.874,-2.29 -2.109,-2.359 l -19.102,-1.059 v 0.006 c -0.715,-0.04 -1.437,0.266 -1.901,0.879 z M -7.768,-49.28 c 0.018,1.232 -0.965,2.245 -2.198,2.263 -1.231,0.017 -2.245,-0.966 -2.262,-2.199 l -0.288,-16.876 -15.026,-9.822 c -1.035,-0.675 -1.326,-2.063 -0.651,-3.098 0.675,-1.034 2.062,-1.326 3.097,-0.65 l 16.014,10.468 -0.004,0.005 c 0.6,0.393 1,1.066 1.012,1.836 z m -13.847,42.184 c 0.744,-0.982 0.553,-2.381 -0.43,-3.126 -0.981,-0.744 -2.381,-0.551 -3.126,0.43 L -35.403,3.63 -53.328,2.637 c -1.235,-0.069 -2.29,0.875 -2.361,2.109 -0.069,1.233 0.876,2.29 2.111,2.359 l 19.101,1.06 V 8.157 c 0.716,0.04 1.438,-0.265 1.903,-0.879 z"
             style="fill:#ed0e66;fill-opacity:1;fill-rule:evenodd;stroke:none"
             id="path1307" />
        </g>
        <g
           id="g1309"
           transform="translate(411.0244,371.2168)">
          <path
             d="m 0,0 -21.745,66.244 c -0.387,1.178 0.26,2.457 1.437,2.843 1.178,0.387 2.457,-0.259 2.844,-1.438 L 4.281,1.406 C 4.668,0.228 4.021,-1.05 2.843,-1.438 1.666,-1.824 0.387,-1.177 0,0"
             style="fill:#ed0e66;fill-opacity:1;fill-rule:evenodd;stroke:none"
             id="path1311" />
        </g>
        <g
           id="g1313"
           transform="translate(368.3916,393.9131)">
          <path
             d="M 0,0 C -4.943,15.058 6.081,32.198 24.623,38.285 43.165,44.371 62.203,37.099 67.145,22.042 72.088,6.984 61.064,-10.156 42.523,-16.243 23.98,-22.329 4.943,-15.057 0,0"
             style="fill:#ffffff;fill-opacity:1;fill-rule:evenodd;stroke:none"
             id="path1315" />
        </g>
        <g
           id="g1317"
           transform="translate(432.7715,421.6538)">
          <path
             d="m 0,0 c 1.158,-1.746 2.093,-3.65 2.765,-5.699 0.674,-2.049 1.048,-4.136 1.151,-6.229 l -19.037,-3.425 -25.498,-4.587 23.256,11.417 z"
             style="fill:#a67b1e;fill-opacity:1;fill-rule:evenodd;stroke:none"
             id="path1319" />
        </g>
        <g
           id="g1321"
           transform="translate(368.3916,393.9131)">
          <path
             d="M 0,0 C -3.275,9.978 0.462,20.869 8.749,28.853 L 24.148,-18.053 C 12.739,-16.534 3.274,-9.977 0,0"
             style="fill:#ed0e66;fill-opacity:1;fill-rule:evenodd;stroke:none"
             id="path1323" />
        </g>
        <g
           id="g1325"
           transform="translate(355.6631,401.4785)">
          <path
             d="m 0,0 c -1.177,-0.386 -2.442,0.255 -2.828,1.43 -0.387,1.176 0.255,2.443 1.43,2.829 4.103,1.347 8.364,0.903 11.936,-0.904 3.572,-1.807 6.454,-4.976 7.801,-9.079 1.346,-4.102 0.903,-8.363 -0.904,-11.935 -1.805,-3.572 -4.974,-6.455 -9.078,-7.802 -1.175,-0.386 -2.442,0.255 -2.827,1.43 -0.385,1.176 0.254,2.443 1.431,2.828 2.927,0.961 5.188,3.018 6.478,5.566 1.287,2.548 1.604,5.588 0.643,8.516 -0.962,2.928 -3.018,5.189 -5.566,6.478 C 5.968,0.645 2.928,0.961 0,0"
             style="fill:#ed0e66;fill-opacity:1;fill-rule:evenodd;stroke:none"
             id="path1327" />
        </g>
      </g>
    </g>
  </g>
</svg>
